<svg width="22" height="22" viewBox="0 0 22 22" fill="none" xmlns="http://www.w3.org/2000/svg">
<g id="Frame" clip-path="url(#clip0_1_181)">
<path id="Vector" d="M11 20C6.0293 20 2 15.9707 2 11C2 6.0293 6.0293 2 11 2C15.9707 2 20 6.0293 20 11C20 15.9707 15.9707 20 11 20ZM11 18.2C12.9096 18.2 14.7409 17.4414 16.0912 16.0912C17.4414 14.7409 18.2 12.9096 18.2 11C18.2 9.09044 17.4414 7.25909 16.0912 5.90883C14.7409 4.55857 12.9096 3.8 11 3.8C9.09044 3.8 7.25909 4.55857 5.90883 5.90883C4.55857 7.25909 3.8 9.09044 3.8 11C3.8 12.9096 4.55857 14.7409 5.90883 16.0912C7.25909 17.4414 9.09044 18.2 11 18.2ZM10.1 6.5H11.9V8.3H10.1V6.5ZM10.1 10.1H11.9V15.5H10.1V10.1Z" fill="#212121"/>
</g>
<defs>
<clipPath id="clip0_1_181">
<rect width="22" height="22" fill="white"/>
</clipPath>
</defs>
</svg>
